<svg height="512" viewBox="0 0 50 60" width="512" xmlns="http://www.w3.org/2000/svg"><g id="Page-1" fill="none" fill-rule="evenodd"><g id="026---Local-Shop"><path id="Path" d="m49 25.174c0 16.594-18.043 30.159-22.84 33.472-.6937791.48384-1.6186407.4721787-2.3-.029-4.76-3.472-22.86-17.697-22.86-33.443 0-13.254834 10.745166-24 24-24s24 10.745166 24 24z" fill="#c6d8fb"/><path id="Path" d="m25 1c-.5 0-1 .021-1.5.052 12.68994.84428636 22.5396648 11.4040669 22.5 24.122 0 16.188-17.165 29.489-22.459 33.206l.322.237c.6813593.5011787 1.6062209.51284 2.3.029 4.794-3.313 22.837-16.878 22.837-33.472.0231156-6.3882822-2.4924724-12.5240951-6.9933545-17.0576086-4.5008821-4.53351348-10.618363-7.09335919-17.0066455-7.1163914z" fill="#a4c3fd"/><path id="Path" d="m40 22v-1.26c-.000054-.2532442-.0475393-.5042381-.14-.74-.0840892-.2029249-.1987509-.3917794-.34-.56l-4.62-5.39c-.568584-.668294-1.402561-1.0523624-2.28-1.05h-15.24c-.877439-.0023624-1.711416.381706-2.28 1.05l-4.62 5.39c-.1412491.1682206-.2559108.3570751-.34.56-.0924607.2357619-.139946.4867558-.14.74v1.26c-.00007021.7955351.3165773 1.5583676.88 2.12.037464.0393407.0775562.0760919.12.11v13.6c-6.95088227-7.5757563-6.61459936-19.3062806.7588645-26.471396 7.3734638-7.16511544 19.1088072-7.16511544 26.482271 0 7.3734639 7.1651154 7.7097468 18.8956397.7588645 26.471396v-13.6c.6411361-.5630056 1.0060548-1.3767743 1-2.23z" fill="#e8edfc"/><path id="Path" d="m25 6c-.506 0-1 .037-1.5.076 6.294448.49228389 11.932048 4.0823158 15.0404594 9.5777865 3.1084113 5.4954707 3.2806605 12.1768773.4595406 17.8252135v4.351c5.0952828-5.5507862 6.4266213-13.5891013 3.3930125-20.4862276s-9.8582189-11.34815652-17.3930125-11.3437724z" fill="#cad9fc"/><path id="Path" d="m39 24.23v13.6c-1.1775906 1.281906-2.5231142 2.3986906-4 3.32v-10.15c-.0032948-1.1032019-.8967981-1.9967052-2-2h-3c-1.1032019.0032948-1.9967052.8967981-2 2v12.76c-.9918697.1609523-1.9951569.2412152-3 .24-5.3268201.0042544-10.4090249-2.2355459-14-6.17v-13.6c.547345.4970501 1.2606472.7716714 2 .77 1.6568542 0 3-1.3431458 3-3 0 1.6568542 1.3431458 3 3 3s3-1.3431458 3-3c0 1.6568542 1.3431458 3 3 3s3-1.3431458 3-3c0 1.6568542 1.3431458 3 3 3s3-1.3431458 3-3c.0023885 1.181954.6985592 2.2523483 1.7780205 2.7337881 1.0794613.4814397 2.3410034.2841853 3.2219795-.5037881z" fill="#e8edfc"/><path id="Path" d="m40 20.74v1.26c-.0060328 1.6543489-1.3456511 2.9939672-3 3-1.6568542 0-3-1.3431458-3-3v-2h5.86c.0924607.2357619.139946.4867558.14.74z" fill="#a4c3fd"/><path id="Path" d="m16 20v2c0 1.6568542-1.3431458 3-3 3-.7393528.0016714-1.452655-.2729499-2-.77-.0424438-.0339081-.082536-.0706593-.12-.11-.5634227-.5616324-.88007021-1.3244649-.88-2.12v-1.26c.000054-.2532442.0475393-.5042381.14-.74z" fill="#a4c3fd"/><path id="Path" d="m19 12.9999892-3 7.0000108h-5.86c.0840892-.2029249.1987509-.3917794.34-.56l4.62-5.39c.568584-.668294 1.402561-1.0523624 2.28-1.05z" fill="#c6d8fb"/><path id="Path" d="m23 13-1 7h-6l3-7z" fill="#e8edfc"/><path id="Path" d="m28 20h-6l1-7h4z" fill="#c6d8fb"/><path id="Path" d="m34 20h-6l-1-7h4z" fill="#e8edfc"/><path id="Path" d="m39.86 20h-5.86l-3-7.0000108 1.62.0000108c.877439-.0023624 1.711416.381706 2.28 1.05l4.62 5.39c.1412491.1682206.2559108.3570751.34.56z" fill="#c6d8fb"/><path id="Path" d="m34 20v2c0 1.6568542-1.3431458 3-3 3s-3-1.3431458-3-3v-2z" fill="#e8edfc"/><path id="Path" d="m28 20v2c0 1.6568542-1.3431458 3-3 3s-3-1.3431458-3-3v-2z" fill="#a4c3fd"/><path id="Path" d="m22 20v2c0 1.6568542-1.3431458 3-3 3s-3-1.3431458-3-3v-2z" fill="#e8edfc"/><path id="Path" d="m35 31v10.15c-2.1349967 1.3300081-4.5154218 2.2175666-7 2.61v-12.76c.0032948-1.1032019.8967981-1.9967052 2-2h3c1.1032019.0032948 1.9967052.8967981 2 2z" fill="#c6d8fb"/><rect id="Rectangle" fill="#c6d8fb" height="8" rx="2" width="9" x="15" y="29"/><path id="Path" d="m23.863 58.617c.6813593.5011787 1.6062209.51284 2.3.029l.381-.266c-5.195-3.832-22.544-17.787-22.544-33.206-.03966478-12.7179331 9.81006-23.27771364 22.5-24.122-.5-.031-1-.052-1.5-.052-6.3882825.02303221-12.5057634 2.58287792-17.00664551 7.1163914-4.50088209 4.5335135-7.01647004 10.6693264-6.99335449 17.0576086 0 15.746 18.1 29.971 22.863 33.443z" fill="#fff"/><path id="Path" d="m1.374 17 1.893.646c-.81270951 2.4278105-1.24022151 4.9679134-1.267 7.528h-2c.02719472-2.7798012.49084482-5.5380806 1.374-8.174z" fill="#fff"/><g fill="#428dff"><path id="Path" d="m1.371 22.188c-.55228475.0027614-1.00223858-.4427153-1.005-.995s.44271525-1.0022386.995-1.005h.01c.55228475 0 1 .4477153 1 1s-.44771525 1-1 1z"/><path id="Path" d="m0 25.174c0 16.044 17.814 30.272 23.274 34.251 1.0253549.7461027 2.4099719.7637412 3.454.044 5.459-3.769 23.272-17.386 23.272-34.295.0321281-13.8486322-11.1514781-25.11007622-25-25.174-2.5927392.03498324-5.1670169.44213941-7.644 1.209-2.4633902.81122553-4.7880065 1.99494863-6.893 3.51-2.11192955 1.50493888-3.96711812 3.34087996-5.494 5.437-1.5588992 2.0729622-2.77285521 4.3840372-3.595 6.844-.10014459.2516854-.08845305.5340956.03215233.7766422s.33872781.4223098.59984767.4943578c.51809234.1424623 1.0606242-.1264374 1.261-.625.75531101-2.2650154 1.87280517-4.3926108 3.309-6.3 1.40476053-1.92901644 3.11291114-3.61757971 5.058-5 1.9354182-1.39301514 4.0724425-2.4819297 6.337-3.229 2.27805-.70431276 4.6448376-1.08042626 7.029-1.117 12.744642.06226481 23.0337883 10.4292507 23 23.174 0 15.935-17.152 29.019-22.409 32.65-.3435126.2400519-.8019281.2340148-1.139-.015-3.752-2.732-22.452-17.145-22.452-32.635 0-.5522847-.44771525-1-1-1s-1 .4477153-1 1z"/><path id="Shape" d="m45 25c0-11.045695-8.954305-20-20-20s-20 8.954305-20 20 8.954305 20 20 20c11.0404407-.0126747 19.9873253-8.9595593 20-20zm-11 15.564c-1.5574533.9061935-3.2432674 1.5710786-5 1.972v-11.536c0-.5522847.4477153-1 1-1h3c.5522847 0 1 .4477153 1 1zm.659-21.564-2.143-5h.1c.5842743.0002537 1.1392217.2559899 1.519.7l3.691 4.3zm-4.318-5 2.143 5h-3.616l-.715-5zm-4.209 0 .715 5h-3.694l.715-5zm-5 5h-3.616l2.143-5h2.188zm-5.791 0h-3.166l3.685-4.3c.3800054-.4442755.9353764-.7000385 1.52-.7h.1zm-4.341 3v-1h4v1c0 1.1045695-.8954305 2-2 2s-2-.8954305-2-2zm6-1h4v1c0 1.1045695-.8954305 2-2 2s-2-.8954305-2-2zm6 0h4v1c0 1.1045695-.8954305 2-2 2s-2-.8954305-2-2zm6 0h4v1c0 1.1045695-.8954305 2-2 2s-2-.8954305-2-2zm6 0h4v1c0 1.1045695-.8954305 2-2 2s-2-.8954305-2-2zm-10-14c6.6286247-.00633011 12.7232658 3.634396 15.8597106 9.474038s2.8060713 12.9312138-.8597106 18.453962v-10.31c.6408252-.7218919.9963733-1.6527168 1-2.618v-1.26c-.0000252-.7159758-.2561132-1.4083357-.722-1.952l-4.62-5.388c-.7595565-.8880202-1.8694515-1.3994925-3.038-1.4h-15.24c-1.1685485.0005075-2.2784435.5119798-3.038 1.4l-4.619 5.391c-.46557719.5427385-.72198092 1.2339292-.723 1.949v1.26c.0036267.9652832.35917479 1.8961081 1 2.618v10.31c-3.66578194-5.5227482-3.99615542-12.61432-.85971062-18.453962 3.13644482-5.839642 9.23108592-9.48036811 15.85971062-9.474038zm-13 30.416v-11.558c.3258584.0900507.6619541.1377763 1 .142 1.1487161.0006041 2.2419626-.4939077 3-1.357.7584679.862488 1.8514535 1.3568141 3 1.3568141s2.2415321-.4943261 3-1.3568141c.7584679.862488 1.8514535 1.3568141 3 1.3568141s2.2415321-.4943261 3-1.3568141c.7584679.862488 1.8514535 1.3568141 3 1.3568141s2.2415321-.4943261 3-1.3568141c.7580374.8630923 1.8512839 1.3576041 3 1.357.3380459-.0042237.6741416-.0519493 1-.142v11.558c-.6210142.6488624-1.2895331 1.2505294-2 1.8v-8.216c0-1.6568542-1.3431458-3-3-3h-3c-1.6568542 0-3 1.3431458-3 3v11.882c-5.5822608.6458941-11.1420125-1.3800795-15-5.466z" fill-rule="nonzero"/><path id="Shape" d="m25 31c0-1.6568542-1.3431458-3-3-3h-5c-1.6568542 0-3 1.3431458-3 3v4c0 1.6568542 1.3431458 3 3 3h5c1.6568542 0 3-1.3431458 3-3zm-2 4c0 .5522847-.4477153 1-1 1h-5c-.5522847 0-1-.4477153-1-1v-4c0-.5522847.4477153-1 1-1h5c.5522847 0 1 .4477153 1 1z" fill-rule="nonzero"/></g></g></g></svg>