<svg id="line_color" height="512" viewBox="0 0 74 74" width="512" xmlns="http://www.w3.org/2000/svg" data-name="line color"><path d="m55.2 54.134h13.63a2.4 2.4 0 0 0 2.4-2.4v-41.62a2.4 2.4 0 0 0 -2.4-2.4h-63.196a2.4 2.4 0 0 0 -2.4 2.4v41.62a2.4 2.4 0 0 0 2.4 2.4h30" fill="#27ccbc"/><path d="m71.234 10.114v41.62a2.4 2.4 0 0 1 -2.4 2.4h-63.2a2.4 2.4 0 0 1 -2.4-2.4v-1.42h61.72a2.394 2.394 0 0 0 2.4-2.4v-40.2h1.48a2.4 2.4 0 0 1 2.4 2.4z" fill="#21b3a9"/><path d="m55.564 49.034h5.51a4.537 4.537 0 0 1 4.54-4.54v-27.14a4.537 4.537 0 0 1 -4.54-4.54h-47.674a4.545 4.545 0 0 1 -4.55 4.54v27.14a4.545 4.545 0 0 1 4.55 4.54h21.88" fill="#eeefee"/><g fill="#323c6b"><path d="m49.817 20.007h-24.833a.5.5 0 0 1 0-1h24.833a.5.5 0 0 1 0 1z"/><path d="m58.15 25.59h-41.5a.5.5 0 0 1 0-1h41.5a.5.5 0 0 1 0 1z"/><path d="m58.15 31.174h-41.5a.5.5 0 0 1 0-1h41.5a.5.5 0 0 1 0 1z"/><path d="m58.15 36.757h-41.5a.5.5 0 0 1 0-1h41.5a.5.5 0 0 1 0 1z"/><path d="m28.494 57.634h-1.083a.5.5 0 0 1 0-1h1.083a.5.5 0 0 1 0 1z"/><path d="m24.4 57.634h-8.375a.5.5 0 1 1 0-1h8.375a.5.5 0 0 1 0 1z"/><path d="m73.776 8.3a.5.5 0 0 1 -.452-.285 4.928 4.928 0 0 0 -4.42-2.8h-3.183a.5.5 0 0 1 0-1h3.179a5.935 5.935 0 0 1 5.323 3.369.5.5 0 0 1 -.451.716z"/><path d="m63.129 5.214h-.924a.5.5 0 0 1 0-1h.924a.5.5 0 1 1 0 1z"/><path d="m61.074 49.534h-5.51a.5.5 0 0 1 0-1h5.036a5.051 5.051 0 0 1 4.516-4.516v-26.189a5.051 5.051 0 0 1 -4.516-4.515h-46.721a5.054 5.054 0 0 1 -4.525 4.515v26.189a5.055 5.055 0 0 1 4.525 4.516h21.405a.5.5 0 0 1 0 1h-21.884a.5.5 0 0 1 -.5-.5 4.049 4.049 0 0 0 -4.05-4.04.5.5 0 0 1 -.5-.5v-27.14a.5.5 0 0 1 .5-.5 4.049 4.049 0 0 0 4.05-4.04.5.5 0 0 1 .5-.5h47.67a.5.5 0 0 1 .5.5 4.044 4.044 0 0 0 4.04 4.04.5.5 0 0 1 .5.5v27.14a.5.5 0 0 1 -.5.5 4.044 4.044 0 0 0 -4.04 4.04.5.5 0 0 1 -.496.5z"/></g><path d="m5.834 31.482a.65.65 0 0 1 -.65-.65v-.542a.65.65 0 0 1 1.3 0v.542a.65.65 0 0 1 -.65.65z" fill="#fff"/><path d="m5.834 42.111a.65.65 0 0 1 -.65-.65v-7.917a.65.65 0 0 1 1.3 0v7.917a.65.65 0 0 1 -.65.65z" fill="#fff"/><path d="m68.833 54.634h-13.633a.5.5 0 1 1 0-1h13.633a1.9 1.9 0 0 0 1.9-1.9v-41.62a1.9 1.9 0 0 0 -1.9-1.9h-63.199a1.9 1.9 0 0 0 -1.9 1.9v41.62a1.9 1.9 0 0 0 1.9 1.9h30a.5.5 0 0 1 0 1h-30a2.9 2.9 0 0 1 -2.9-2.9v-41.62a2.9 2.9 0 0 1 2.9-2.9h63.2a2.9 2.9 0 0 1 2.9 2.9v41.62a2.9 2.9 0 0 1 -2.901 2.9z" fill="#323c6b"/><path d="m45.478 61.206-3.941 9.588-1.934-3.682-3.961 1.261 3.742-9.114" fill="#fe7058"/><path d="m41.538 71.294a.5.5 0 0 1 -.443-.268l-1.74-3.311-3.562 1.135a.5.5 0 0 1 -.614-.666l3.742-9.115a.5.5 0 1 1 .925.38l-3.335 8.123 2.94-.937a.5.5 0 0 1 .594.244l1.437 2.734 3.534-8.6a.5.5 0 1 1 .924.38l-3.94 9.591a.5.5 0 0 1 -.439.309z" fill="#323c6b"/><path d="m51.57 59.551 3.631 8.822-3.962-1.261-1.934 3.682-3.941-9.588" fill="#ea6453"/><path d="m49.305 71.294h-.023a.5.5 0 0 1 -.439-.309l-3.943-9.585a.5.5 0 1 1 .925-.38l3.533 8.6 1.442-2.741a.5.5 0 0 1 .595-.244l2.939.936-3.222-7.83a.5.5 0 1 1 .925-.381l3.63 8.823a.5.5 0 0 1 -.614.667l-3.562-1.135-1.739 3.311a.5.5 0 0 1 -.447.268z" fill="#323c6b"/><circle cx="45.421" cy="50.318" fill="#fcd462" r="10.894"/><path d="m45.421 45.339 1.524 3.087 3.406.495-2.465 2.403.582 3.393-3.047-1.602-3.047 1.602.582-3.393-2.465-2.403 3.407-.495z" fill="#eeefee"/><path d="m45.421 61.712a11.394 11.394 0 1 1 11.394-11.394 11.406 11.406 0 0 1 -11.394 11.394zm0-21.788a10.394 10.394 0 1 0 10.394 10.394 10.405 10.405 0 0 0 -10.394-10.394z" fill="#323c6b"/></svg>