<?xml version="1.0"?>
<svg xmlns="http://www.w3.org/2000/svg" id="Layer_1" data-name="Layer 1" viewBox="0 0 128 128" width="512" height="512"><title>NO WIFI SIGNAL</title><circle cx="92.25" cy="72.914" r="16.25" style="fill:#79dbf2"/><circle cx="64.231" cy="88.745" r="7.699" style="fill:#fff"/><path d="M23.586,56.839A4.087,4.087,0,0,1,20.664,49.9a60.914,60.914,0,0,1,86.639-.5,4.087,4.087,0,1,1-5.78,5.78,52.739,52.739,0,0,0-75.014.433A4.075,4.075,0,0,1,23.586,56.839Z" style="fill:#79dbf2"/><path d="M91.736,56.69a45.109,45.109,0,0,0-61.074,5.587,4.087,4.087,0,1,0,6.075,5.468,36.929,36.929,0,0,1,45.454-7.577A16.158,16.158,0,0,1,91.736,56.69Z" style="fill:#fff"/><path d="M76,72.914a16.181,16.181,0,0,1,1.157-6A28.61,28.61,0,0,0,41.144,75.5a4.087,4.087,0,1,0,6.582,4.845,20.45,20.45,0,0,1,28.566-4.406A16.3,16.3,0,0,1,76,72.914Z" style="fill:#79dbf2"/><path d="M71.93,87.5a1.25,1.25,0,0,0-1.25,1.25,6.45,6.45,0,1,1-2.1-4.758,1.25,1.25,0,1,0,1.688-1.844,8.949,8.949,0,1,0,2.907,6.6A1.25,1.25,0,0,0,71.93,87.5Z" style="fill:#192f60"/><path d="M100.64,56.061a5.336,5.336,0,1,0,7.547-7.547A62.263,62.263,0,0,0,33.665,38.3,1.25,1.25,0,0,0,34.9,40.477a59.762,59.762,0,0,1,71.521,9.8,2.837,2.837,0,0,1-4.012,4.012,53.99,53.99,0,0,0-76.791.442,2.907,2.907,0,0,1-4.012.047,2.84,2.84,0,0,1-.047-4.012c1.367-1.4,2.812-2.742,4.3-3.994a1.25,1.25,0,1,0-1.613-1.91c-1.543,1.3-3.047,2.7-4.471,4.156A5.337,5.337,0,0,0,27.4,56.483a51.491,51.491,0,0,1,73.236-.423Z" style="fill:#192f60"/><path d="M29.192,43.868a1.249,1.249,0,0,0,.719-.228q.4-.281.8-.556A1.25,1.25,0,0,0,29.3,41.021c-.279.19-.555.382-.83.575a1.25,1.25,0,0,0,.721,2.273Z" style="fill:#192f60"/><path d="M75.6,58.608a1.25,1.25,0,0,0,.8-2.369,38.194,38.194,0,0,0-40.592,10.67,2.921,2.921,0,0,1-4,.211,2.841,2.841,0,0,1-.212-4.007,43.88,43.88,0,0,1,52.924-9.567,1.25,1.25,0,1,0,1.154-2.217A46.376,46.376,0,0,0,29.733,61.441a5.336,5.336,0,1,0,7.933,7.14A35.7,35.7,0,0,1,75.6,58.608Z" style="fill:#192f60"/><path d="M72.38,63.711a29.7,29.7,0,0,0-8.149-1.142A30.031,30.031,0,0,0,40.137,74.759a5.339,5.339,0,0,0,4.288,8.5,5.464,5.464,0,0,0,.813-.061,5.3,5.3,0,0,0,3.5-2.112,19.317,19.317,0,0,1,15.5-7.845,19.082,19.082,0,0,1,6.241,1.051,1.25,1.25,0,0,0,.816-2.363,21.586,21.586,0,0,0-7.058-1.187A21.828,21.828,0,0,0,46.72,79.606a2.837,2.837,0,0,1-4.569-3.364A27.522,27.522,0,0,1,64.23,65.069a27.2,27.2,0,0,1,7.464,1.046,1.25,1.25,0,1,0,.686-2.4Z" style="fill:#192f60"/><path d="M100.759,64.406a1.25,1.25,0,0,0-1.768,0L92.25,71.148l-6.741-6.741a1.25,1.25,0,0,0-1.768,1.767l6.741,6.741-6.741,6.741a1.25,1.25,0,1,0,1.768,1.767l6.741-6.741,6.741,6.741a1.25,1.25,0,1,0,1.768-1.767l-6.741-6.741,6.741-6.741A1.249,1.249,0,0,0,100.759,64.406Z" style="fill:#fff"/><path d="M81.107,59.42c-.224.185-.441.374-.656.57a1.25,1.25,0,0,0,1.689,1.844q.273-.251.559-.486a1.25,1.25,0,0,0-1.592-1.928Z" style="fill:#192f60"/><path d="M92.25,55.415a17.352,17.352,0,0,0-7.077,1.49,1.25,1.25,0,1,0,1.012,2.285,15.006,15.006,0,1,1-6.594,5.675,1.251,1.251,0,0,0-2.109-1.344A17.5,17.5,0,1,0,92.25,55.415Z" style="fill:#192f60"/></svg>
